<svg xmlns="http://www.w3.org/2000/svg" height="58" width="90" viewBox="0 86.8 90 58.000001"><path d="M53.684 138.69s2.119.35 3.71.037l-.185-.664h.564l-1.135-1.427c0-.443-.82-.778-.82-.778-1.071-.314-1.7-1.456-1.7-1.456.13-.378-.249-1.763-.249-1.763-.128-.314.129-3.775.129-3.775-.129-1.763 1.505-3.147 1.505-3.147.628.756 1.192-.628 1.192-.628.564.756 1.135-.314 1.135-.314.128 1.449.628.064.628.064.185.314.756-.692.756-.692.628.82 1.763-.82 1.763-.82.185.25 1.07-.693 1.07-.693.564.82 1.385-.314 1.385-.314.25.443.756-.185.756-.185.628.942 1.506-.693 1.506-.693.5.5.692-.442.692-.442.129.942.443.378.443.378.064-.692.756-.82.756-.82.129.499.757.563.757.563 1.191 2.327 1.698 2.327 1.698 2.327l.25 1.07c.507 2.89 1.449 1.884 1.449 1.884.442.443 2.012-2.262 2.012-2.262.628.442 1.62-2.955 1.62-2.955.064-.314 1.02-.314 1.02-.314l.065-.25c.064-.25.628-.25.628-.25 2.833-.563 2.39-2.012 2.39-2.012 0-1.134.443-1.32.443-1.32.878-.756.692-3.397.692-3.397-.928-2.512.928-4.339.928-4.339-.457-.378 0-1.884 0-1.884.357-2.39-2.312-4.467-2.312-4.467-.186-.378.563-.186.563-.186-.506-1.256-2.39-2.64-2.39-2.64-.443-1.32-1.449-2.198-1.449-2.198-.942-1.884-4.339-1.006-4.339-1.006-1.256.5-1.763.128-1.763.128-1.698 1.07-1.384.443-1.384.443-1.135-.129-2.705 1.37-2.705 1.37-.756.927-1.134-.614-1.134-.614-.693-2.955-1.763-2.705-3.083-3.583-1.32-.877-2.705-1.134-2.705-1.134-1.256-1.135-5.124-1.791-5.124-1.791-1.67-.586-3.34-.336-3.34-.336-2.84-.999-7.436 0-7.436 0-4.424.086-11.275 2.805-11.275 2.805l-8.857.035c-2.255-.25-3.59.921-3.59.921-.584.75-3.26 2.17-3.26 2.17-1.585.25-3.512 2.083-3.512 2.083-2.419.92-2.512 4.304-2.512 4.304-.093 3.111-.164 3.011-.164 3.011l-.307 1.884c-.863 1.249-.55 2.198-.55 2.198-.313 2.262.5 2.955.5 2.955.129-1.385.371.314.371.314.578-.878.7-.129.7-.129 1.634-1.506.82-6.223.82-6.223-.378-2.704.25-3.268.25-3.268-.378 1.884 3.019 10.754 3.019 10.754.942 3.583-1.634 6.223-1.634 6.223-.942.507-.065 2.705-.065 2.705-.185.692.693 4.09.693 4.09.314 1.19.435 6.536.435 6.536-.378 1.699.328 1.32.328 1.32.25-.378.478-.456.478-.456v1.463l.7.563s1.356.357 3.083.129l.128-.378.692-.129-.813-1.57c-.314-.378-1.506-1.384-1.506-1.384-1.256-2.577-.628-8.3-.628-8.3l1.07-2.327c.25-.692.564-.692.564-.692 0 1.07 2.705 5.91 2.705 5.91 1.07 2.076 1.256 5.28 1.256 5.28-.25 2.077.756.942.756.942.314-.378.821 0 .821 0l.129.628.5.5c.377.128 3.396-.129 3.396-.129l-.314-1.006-.628-.692c0-1.006-1.192-1.192-1.192-1.192-.185-.628-1.07-1.763-1.506-2.576-.435-.814-1.634-4.653-1.634-4.653-.82-2.198.129-3.204.129-3.204.628-.379 2.076-5.66 2.076-5.66.314-2.012.821-1.698.821-1.698 1.57 2.512 5.281 5.345 5.281 5.345 1.948 2.327 2.455 1.006 2.455 1.006.064-1.006 2.326-.877 2.326-.877 2.013.563 5.974.563 5.974.563 3.083 0 2.198.564 2.198.564-.693 1.135-.065 2.955-.065 2.955-.628 1.948-.314 2.326-.314 2.326-.563 1.634 0 2.327 0 2.327.186 1.948.878 1.384.878 1.384-.007 1.698.92 1.07.92 1.07.729 1.57 1.35-.378 1.35-.378.185 1.449.563 1.385.563 1.385.507 1.07.821-.314 1.07.25.25.563.565.442.565.442l.185.692c-.507.314-.193 1.056-.193 1.056.25.314.821-.42.821-.42s.143-.193.271.92c0 0 .25.614.742.9 0 0 1.585.185 1.884-.172-.021.007.7 1.812 1.364 1.89z" fill="#fff"/></svg>